<?xml version="1.0" encoding="utf-8"?>
<!-- Generator: Adobe Illustrator 22.1.0, SVG Export Plug-In . SVG Version: 6.00 Build 0)  -->
<svg version="1.1" id="Lines" xmlns="http://www.w3.org/2000/svg" xmlns:xlink="http://www.w3.org/1999/xlink" x="0px" y="0px"
	 viewBox="0 0 10 10" style="enable-background:new 0 0 10 10;" xml:space="preserve">
<style type="text/css">
	.st0{fill:none;stroke:#000000;stroke-width:0.5;stroke-miterlimit:10;stroke-dasharray:1;}
	.st1{fill:none;stroke:#000000;stroke-width:0.5;stroke-miterlimit:10;}
	.st2{fill:none;stroke:#000000;stroke-width:0.5;stroke-miterlimit:10;stroke-dasharray:1,1;}
	.st3{fill:none;stroke:#000000;stroke-width:0.5;stroke-linecap:square;stroke-linejoin:bevel;stroke-miterlimit:10;}
	.st4{fill:none;stroke:#000000;stroke-width:0.5;stroke-linecap:round;stroke-linejoin:round;stroke-miterlimit:10;}
</style>
<g id="line1">
	<g>
		<path d="M1,1.5l0.5,0c0,0,0.1,0,0.1,0s0,0.1,0,0.1c0,0,0,0,0,0L1,1.5C1,1.5,1,1.5,1,1.5C1,1.5,1,1.5,1,1.5z"/>
		<path d="M2.5,1.4l1,0c0.1,0,0.1,0.1,0.2,0.1c0,0.1-0.1,0.1-0.1,0.2c0,0,0,0,0,0l-1,0C2.4,1.6,2.4,1.6,2.5,1.4
			C2.4,1.4,2.4,1.4,2.5,1.4z"/>
		<path d="M4.5,1.3l1,0c0.1,0,0.2,0.1,0.2,0.2S5.6,1.7,5.5,1.7c0,0,0,0,0,0l-1,0c-0.1,0-0.2-0.1-0.2-0.2C4.3,1.4,4.4,1.3,4.5,1.3z"
			/>
		<path d="M6.5,1.2c0.3,0,0.7,0,1,0c0.1,0,0.2,0.1,0.2,0.2c0,0.1-0.1,0.2-0.2,0.2c-0.3,0-0.7,0-1,0c-0.1,0-0.3-0.1-0.3-0.3
			C6.2,1.4,6.4,1.2,6.5,1.2L6.5,1.2z"/>
		<path d="M8.5,1.4c0.2,0,0.3,0.1,0.5,0.1c0,0,0,0,0,0c0,0,0,0,0,0c-0.2,0-0.3,0.1-0.5,0.1c-0.1,0-0.1,0-0.1-0.1S8.4,1.4,8.5,1.4
			C8.5,1.4,8.5,1.4,8.5,1.4z"/>
	</g>
</g>
<g id="line2">
	<path d="M1,2.5c0.7-0.2,1.3-0.2,2-0.2c0.3,0,0.7,0.1,1,0.1c0.3,0,0.7,0,1-0.1c1.3-0.2,2.7-0.2,4,0.1v0.1C7.7,2.8,6.3,2.8,5,2.6
		c-0.3,0-0.7-0.1-1-0.1c-0.3,0-0.7,0.1-1,0.1C2.3,2.7,1.7,2.7,1,2.5L1,2.5z"/>
</g>
<line id="line3" class="st0" x1="1" y1="3.5" x2="9" y2="3.5"/>
<g id="line4">
	<g>
		<line class="st1" x1="1" y1="4.5" x2="1.5" y2="4.5"/>
		<line class="st2" x1="2.5" y1="4.5" x2="8" y2="4.5"/>
		<line class="st1" x1="8.5" y1="4.5" x2="9" y2="4.5"/>
	</g>
</g>
<line id="line5" class="st3" x1="1" y1="5.5" x2="9" y2="5.5"/>
<line id="line6" class="st4" x1="1" y1="6.5" x2="9" y2="6.5"/>
<line id="line7" class="st1" x1="1" y1="7.5" x2="9" y2="7.5"/>
</svg>
